<svg width="27" height="39" viewBox="0 0 27 39" fill="none" xmlns="http://www.w3.org/2000/svg">
<path opacity="0.5" d="M7.25 7.16667V5.11111C7.25 4.02078 7.68899 2.9751 8.47039 2.20412C9.25179 1.43313 10.3116 1 11.4167 1H15.5833C16.6884 1 17.7482 1.43313 18.5296 2.20412C19.311 2.9751 19.75 4.02078 19.75 5.11111V7.16667M1 15.3889H26M1 27.7222H26M7.25 35.9444V38M19.75 35.9444V38M5.16667 7.16667H21.8333C24.1345 7.16667 26 9.00727 26 11.2778V31.8333C26 34.1038 24.1345 35.9444 21.8333 35.9444H5.16667C2.86548 35.9444 1 34.1038 1 31.8333V11.2778C1 9.00727 2.86548 7.16667 5.16667 7.16667Z" stroke="white" stroke-width="2" stroke-linecap="round" stroke-linejoin="round"/>
</svg>
